<svg id="SvgjsSvg1000" xmlns="http://www.w3.org/2000/svg" version="1.1" xmlns:xlink="http://www.w3.org/1999/xlink" xmlns:svgjs="http://svgjs.com/svgjs" width="158" height="61" viewBox="0 0 158 61"><title>Fill 1</title><desc>Created with Avocode.</desc><defs id="SvgjsDefs1001"></defs><path id="SvgjsPath1007" d="M23 58.29L24.97 60.25L30.31 54.93L35.66 60.25L37.629999999999995 58.29L30.309999999999995 51Z " fill="#006532" fill-opacity="1" transform="matrix(1,0,0,1,0,0)"></path><path id="SvgjsPath1008" d="M35.66 0L30.309999999999995 5.32L24.969999999999995 0L22.999999999999996 1.96L30.309999999999995 9.25L37.629999999999995 1.96Z " fill="#006532" fill-opacity="1" transform="matrix(1,0,0,1,0,0)"></path><path id="SvgjsPath1009" d="M58.32 37.57L51 30.29L58.32 23L60.29 24.96L54.94 30.29L60.29 35.61Z " fill="#006532" fill-opacity="1" transform="matrix(1,0,0,1,0,0)"></path><path id="SvgjsPath1010" d="M0 24.96L5.34 30.29L0 35.61L1.97 37.57L9.290000000000001 30.29L1.9700000000000006 23Z " fill="#006532" fill-opacity="1" transform="matrix(1,0,0,1,0,0)"></path><path id="SvgjsPath1011" d="M19.64 30.18L30.310000000000002 19.549999999999997L40.99 30.18L30.310000000000002 40.81ZM52.44 47.98L57.62 42.81999999999999L47.66 32.88999999999999L37.959999999999994 42.55L45.949999999999996 50.51L42.98 53.47L32.28 42.82L43.97 31.18L43.94 31.16L44.949999999999996 30.16L32.309999999999995 17.560000000000002L42.98 6.9300000000000015L45.949999999999996 9.89L37.959999999999994 17.85L47.66 27.51L57.62 17.580000000000002L52.44 12.420000000000002L50.47 14.390000000000002L53.68 17.580000000000002L47.66 23.580000000000002L41.91 17.85L54.8 5.010000000000002L52.82 3.0500000000000016L47.93 7.920000000000002L42.98 3.0000000000000018L30.33 15.600000000000001L30.31 15.570000000000002L30.29 15.600000000000001L17.64 3.0000000000000018L12.7 7.920000000000002L7.799999999999999 3.0500000000000016L5.829999999999999 5.010000000000002L18.72 17.85L12.959999999999999 23.580000000000002L6.9399999999999995 17.580000000000002L10.149999999999999 14.390000000000002L8.179999999999998 12.420000000000002L2.9999999999999982 17.580000000000002L12.959999999999999 27.51L22.659999999999997 17.85L14.669999999999996 9.89L17.639999999999997 6.930000000000001L28.319999999999997 17.560000000000002L15.669999999999996 30.160000000000004L16.679999999999996 31.160000000000004L16.659999999999997 31.180000000000003L28.339999999999996 42.82000000000001L17.639999999999997 53.470000000000006L14.669999999999996 50.510000000000005L22.659999999999997 42.550000000000004L12.959999999999997 32.89L2.9999999999999964 42.82L8.179999999999996 47.980000000000004L10.149999999999997 46.010000000000005L6.939999999999997 42.82000000000001L12.959999999999997 36.82000000000001L18.72 42.55000000000001L5.829999999999998 55.390000000000015L7.799999999999998 57.350000000000016L12.7 52.48000000000002L17.64 57.40000000000002L30.310000000000002 44.78000000000002L42.980000000000004 57.40000000000002L47.93000000000001 52.48000000000002L52.82000000000001 57.350000000000016L54.800000000000004 55.390000000000015L41.910000000000004 42.55000000000001L47.660000000000004 36.82000000000001L53.68000000000001 42.82000000000001L50.470000000000006 46.010000000000005Z " fill="#e40045" fill-opacity="1" transform="matrix(1,0,0,1,0,0)"></path><path id="SvgjsPath1012" d="M28.94 29.49L30.51 31.04L32.07 29.49L30.51 27.93ZM30.51 34.97L25 29.49L30.509999999999998 24L36.019999999999996 29.490000000000002Z " fill="#e40045" fill-opacity="1" transform="matrix(1,0,0,1,0,0)"></path><path id="SvgjsPath1013" d="M84.34 23.52C85 22.57 85.36 22.009999999999998 85.36 21.4C85.36 20.95 85.2 20.45 84.92999999999999 20H73.57V22.79H80.75999999999999L79.55999999999999 24.419999999999998L72.99999999999999 33.91V36.23H85.23999999999998V33.43H77.34999999999998L78.65999999999998 31.77Z " fill="#ffffff" fill-opacity="1" transform="matrix(1,0,0,1,0,0)"></path><path id="SvgjsPath1014" d="M95.11 23.95C93.75 23.95 92.46 24.4 91.51 25.64V19.62C91.51 18.68 90.92 18 89.88000000000001 18C89.27000000000001 18 88.61000000000001 18.2 88.00000000000001 18.47V35.58H91.51000000000002V29.9C91.51000000000002 27.509999999999998 92.46000000000002 26.7 93.98000000000002 26.7C95.04000000000002 26.7 95.60000000000002 27.529999999999998 95.60000000000002 28.84V35.58H99.11000000000003V28.229999999999997C99.11000000000003 25.529999999999998 97.64000000000003 23.949999999999996 95.11000000000003 23.949999999999996 " fill="#ffffff" fill-opacity="1" transform="matrix(1,0,0,1,0,0)"></path><path id="SvgjsPath1015" d="M105.33 32.05C105.33 31.119999999999997 106.16 30.58 107.66 30.58C108.07 30.58 108.5 30.58 108.97 30.61C108.97 32.54 107.84 33.29 106.64 33.29C105.73 33.29 105.33 32.769999999999996 105.33 32.05ZM102.66 25.35L104.06 27.520000000000003C104.96000000000001 26.930000000000003 105.98 26.620000000000005 106.98 26.620000000000005C108.45 26.620000000000005 108.9 27.360000000000003 108.97 28.600000000000005C108.5 28.580000000000005 108.02 28.580000000000005 107.57 28.580000000000005C104.00999999999999 28.580000000000005 102 29.970000000000006 102 32.36000000000001C102 34.53000000000001 103.38 35.86000000000001 105.67 35.86000000000001C106.91 35.86000000000001 108.16 35.410000000000004 109.08 34.10000000000001C109.14999999999999 35.14000000000001 109.72 35.86000000000001 110.6 35.86000000000001C111.22999999999999 35.86000000000001 111.86999999999999 35.650000000000006 112.47999999999999 35.38000000000001V28.28000000000001C112.47999999999999 25.58000000000001 110.66999999999999 24.000000000000007 107.57 24.000000000000007C105.66999999999999 24.000000000000007 104.1 24.470000000000006 102.66 25.35000000000001Z " fill="#ffffff" fill-opacity="1" transform="matrix(1,0,0,1,0,0)"></path><path id="SvgjsPath1016" d="M120.32 33.03C119.8 33.03 119.50999999999999 32.74 119.50999999999999 32.2V19.620000000000005C119.50999999999999 18.680000000000003 118.91999999999999 18.000000000000004 117.88 18.000000000000004C117.27 18.000000000000004 116.61 18.200000000000003 116 18.470000000000002V32.49C116 34.61 117.2 35.81 119.21 35.81C120.19 35.81 120.97999999999999 35.580000000000005 121.75 35.09L121.3 32.88C121.02 32.970000000000006 120.69 33.03 120.32 33.03 " fill="#ffffff" fill-opacity="1" transform="matrix(1,0,0,1,0,0)"></path><path id="SvgjsPath1017" d="M129.72 33.9C128.73 33.9 128.18 33.25 128.18 32.21V27.66H131.62V25.04H128.18V23.619999999999997C128.18 22.679999999999996 127.62 21.999999999999996 126.67 21.999999999999996C126.06 21.999999999999996 125.4 22.199999999999996 124.79 22.469999999999995V25.039999999999996H123V27.659999999999997H124.67V32.8C124.67 35.25 126.17 36.669999999999995 128.75 36.669999999999995C129.93 36.669999999999995 130.9 36.46999999999999 131.83 36.06999999999999L131.37 33.46999999999999C130.9 33.76999999999999 130.24 33.89999999999999 129.72 33.89999999999999 " fill="#ffffff" fill-opacity="1" transform="matrix(1,0,0,1,0,0)"></path><path id="SvgjsPath1018" d="M143.26 24C142.64999999999998 24 141.98999999999998 24.2 141.38 24.47V29.93C141.38 32.269999999999996 140.54 33.08 139.14 33.08C138.07 33.08 137.51 32.269999999999996 137.51 30.939999999999998V25.619999999999997C137.51 24.679999999999996 136.92 23.999999999999996 135.88 23.999999999999996C135.26999999999998 23.999999999999996 134.60999999999999 24.199999999999996 134 24.469999999999995V31.569999999999993C134 34.279999999999994 135.47 35.85999999999999 138.01 35.85999999999999C139.32 35.85999999999999 140.59 35.379999999999995 141.48999999999998 34.04999999999999C141.55999999999997 35.10999999999999 142.1 35.85999999999999 143.01 35.85999999999999C143.62 35.85999999999999 144.28 35.64999999999999 144.89 35.379999999999995V25.619999999999997C144.89 24.679999999999996 144.29999999999998 23.999999999999996 143.26 23.999999999999996 " fill="#ffffff" fill-opacity="1" transform="matrix(1,0,0,1,0,0)"></path><path id="SvgjsPath1019" d="M155.56 24C154.39000000000001 24 153.23 24.52 152.4 25.98C152.4 24.810000000000002 151.83 24 150.88 24C150.26999999999998 24 149.60999999999999 24.2 149 24.47V35.629999999999995H152.51V30.849999999999994C152.51 28.029999999999994 153.41 27.069999999999993 154.85999999999999 27.069999999999993C155.41 27.069999999999993 155.89999999999998 27.21999999999999 156.29 27.46999999999999L157.31 24.379999999999992C156.79 24.159999999999993 156.18 23.999999999999993 155.56 23.999999999999993 " fill="#ffffff" fill-opacity="1" transform="matrix(1,0,0,1,0,0)"></path></svg>